<?xml version="1.0" standalone="no"?>
<!DOCTYPE svg PUBLIC "-//W3C//DTD SVG 20010904//EN"
 "http://www.w3.org/TR/2001/REC-SVG-20010904/DTD/svg10.dtd">
<svg version="1.0" xmlns="http://www.w3.org/2000/svg"
 width="1324.000000pt" height="303.000000pt" viewBox="0 0 1324.000000 303.000000"
 preserveAspectRatio="xMidYMid meet">

<g transform="translate(0.000000,303.000000) scale(0.100000,-0.100000)"
fill="#000000" stroke="none">
<path d="M3384 2703 c34 -66 35 -107 37 -1093 2 -968 2 -986 -18 -1031 l-20
-45 64 8 c240 28 255 29 460 4 304 -37 496 -49 573 -36 36 5 139 15 230 20 91
6 219 16 285 23 144 14 275 12 410 -9 336 -51 402 -53 540 -20 140 34 255 46
434 46 143 0 161 -2 280 -34 l126 -34 1910 -3 c1459 -2 1975 1 2185 11 151 7
336 13 410 14 149 0 481 -19 520 -30 22 -7 23 -5 12 8 -11 14 -8 15 32 6 29
-6 110 -6 218 -1 95 5 175 6 176 1 2 -4 91 -8 198 -8 l194 0 0 348 c0 191 3
688 7 1105 l6 758 -69 -6 c-38 -4 -145 -16 -239 -27 -183 -22 -207 -21 -475
11 -251 31 -452 37 -590 18 -63 -9 -190 -18 -282 -21 -91 -3 -190 -11 -220
-17 -70 -15 -207 -7 -428 26 -218 33 -346 35 -455 7 -131 -34 -214 -42 -409
-42 -181 0 -188 1 -315 36 l-130 35 -2018 -4 c-1506 -3 -2080 -7 -2263 -17
-194 -10 -280 -11 -415 -1 -307 21 -327 22 -321 13 3 -4 -17 -6 -43 -2 -26 3
-121 2 -211 -2 -105 -5 -168 -4 -174 2 -6 6 -59 10 -118 10 l-109 0 15 -27z
m4184 -478 c50 -12 112 -36 129 -49 3 -3 -45 -268 -50 -272 -2 -2 -28 9 -58
26 -219 118 -495 3 -569 -238 -50 -161 0 -295 132 -352 98 -43 252 -27 373 39
l51 27 -23 -126 c-12 -69 -23 -131 -23 -137 0 -18 -84 -58 -161 -77 -39 -9
-106 -16 -167 -16 -233 0 -402 108 -474 305 -28 77 -30 238 -5 335 75 281 292
481 592 544 48 10 195 4 253 -9z m1143 -12 c129 -44 221 -124 275 -238 139
-293 -24 -689 -349 -849 -114 -56 -195 -76 -317 -76 -258 0 -430 119 -495 345
-27 93 -17 255 23 363 90 242 308 427 557 472 77 14 241 5 306 -17z m2330 0
c129 -44 221 -124 275 -238 90 -188 53 -438 -93 -637 -93 -127 -270 -241 -423
-274 -103 -22 -272 -14 -358 16 -136 48 -240 159 -284 303 -29 98 -22 260 17
367 39 108 104 207 188 287 106 100 237 169 370 193 79 14 243 5 308 -17z
m-6616 -20 c-3 -16 -23 -127 -45 -248 -21 -121 -51 -287 -65 -370 -15 -82 -35
-174 -45 -203 -53 -151 -154 -253 -298 -301 -111 -38 -300 -23 -362 27 l-23
18 23 131 22 130 56 -33 c55 -33 82 -39 152 -34 72 5 137 63 163 147 8 26 44
209 78 406 l63 357 143 0 143 0 -5 -27z m935 -6 c100 -52 150 -117 171 -225
30 -158 -58 -355 -202 -451 -99 -66 -156 -83 -309 -90 l-135 -6 -30 -170 -30
-170 -143 -3 c-133 -2 -143 -1 -139 15 3 10 49 269 103 576 l98 558 280 -3
281 -3 55 -28z m4316 6 c-3 -16 -38 -208 -77 -428 -38 -220 -73 -410 -76 -422
l-5 -23 219 0 220 0 -23 -122 c-13 -68 -23 -124 -24 -125 0 -2 -162 -3 -360
-3 l-360 0 5 23 c2 12 25 139 51 282 25 143 61 343 79 445 18 102 41 233 51
293 l18 107 144 0 144 0 -6 -27z m2666 7 c75 -23 136 -71 176 -138 25 -43 27
-56 27 -147 0 -94 -2 -105 -34 -168 -40 -83 -118 -162 -195 -200 -31 -15 -56
-29 -56 -31 0 -2 47 -100 105 -217 58 -118 105 -217 105 -222 0 -4 -71 -6
-157 -5 l-157 3 -86 192 -85 193 -56 0 -56 0 -34 -195 -33 -195 -144 0 c-132
0 -143 1 -138 18 2 9 49 268 102 575 l98 557 277 0 c248 0 284 -2 341 -20z
m-5862 -442 c0 -7 -10 -70 -22 -140 l-22 -128 -374 0 -374 0 6 28 c3 15 13 72
21 127 9 55 18 106 20 113 3 9 87 12 375 12 289 0 370 -3 370 -12z"/>
<path d="M8410 1966 c-155 -34 -266 -152 -300 -320 -32 -156 44 -293 181 -326
176 -42 371 80 429 268 50 160 3 305 -114 357 -66 30 -128 36 -196 21z"/>
<path d="M10740 1966 c-156 -35 -267 -155 -300 -323 -39 -199 92 -350 287
-330 59 6 163 52 205 90 144 133 181 354 81 485 -50 66 -171 101 -273 78z"/>
<path d="M4961 1848 c-12 -73 -25 -146 -29 -162 l-5 -29 89 5 c94 5 134 19
170 60 57 62 72 153 32 203 -31 39 -77 55 -160 55 l-73 0 -24 -132z"/>
<path d="M11965 1968 c-5 -17 -45 -243 -45 -258 0 -8 34 -11 113 -8 107 3 116
5 150 31 45 34 68 75 70 127 2 48 -19 87 -55 106 -36 19 -227 20 -233 2z"/>
<path d="M2635 2710 c-38 -12 -69 -40 -91 -83 -15 -29 -16 -111 -10 -1007 8
-1074 4 -1017 69 -1064 24 -18 46 -22 138 -24 119 -4 123 -6 94 -62 -9 -16
-25 -32 -38 -35 -12 -3 -104 -7 -204 -8 l-182 -2 -24 25 c-16 16 -65 137 -142
350 -289 797 -278 770 -334 822 -58 54 -114 70 -204 61 -54 -5 -57 -5 -66 20
-17 43 -80 105 -124 122 -37 14 -105 15 -552 13 -559 -3 -535 -1 -599 -64
-118 -119 -89 -317 57 -388 l54 -27 510 3 510 3 49 30 c33 21 59 47 79 82 l30
52 58 1 c62 0 110 -18 122 -47 6 -16 186 -507 321 -878 72 -199 84 -224 118
-263 59 -67 80 -72 326 -72 250 0 265 4 333 79 33 37 67 118 67 162 0 14 14
17 103 21 115 4 143 15 178 71 19 31 19 54 17 1024 -3 984 -3 992 -24 1019
-11 15 -33 37 -48 48 -26 20 -42 21 -294 23 -147 1 -281 -2 -297 -7z"/>
</g>
</svg>
