<svg width="1287.3907226562499px" height="120.8px" xmlns="http://www.w3.org/2000/svg" viewBox="-393.69536132812493 14.600000000000001 1287.3907226562499 120.8" style="background: none;" preserveAspectRatio="xMidYMid"><defs><filter id="editing-hover" x="-100%" y="-100%" width="300%" height="300%"><feFlood flood-color="rgba(100%,100%,100%,0)" result="flood"></feFlood><feComposite operator="in" in2="SourceAlpha" in="flood" result="shadow"></feComposite><feOffset dx="-4" dy="-4" in="SourceGraphic" result="offset-1"></feOffset><feOffset dx="4" dy="4" in="shadow" result="offset-2"></feOffset><feMerge><feMergeNode in="offset-2"></feMergeNode><feMergeNode in="offset-1"></feMergeNode></feMerge></filter></defs><g filter="url(#editing-hover)"><g transform="translate(-214.60902711749077, 104.79000091552734)"><path d="M26.11-42.69L26.11-42.69L26.11-42.69Q41.79-42.69 41.79-31.62L41.79-31.62L41.79-31.62Q41.79-25.54 37.89-21.89L37.89-21.89L37.89-21.89Q34.05-18.24 27.33-18.24L27.33-18.24L27.33-18.24Q24.19-18.24 21.76-20.03L21.76-20.03L21.76-20.03Q20.61-20.80 19.84-21.82L19.84-21.82L19.84-21.82Q24.51-21.82 26.98-24.67L26.98-24.67L26.98-24.67Q29.44-27.52 29.44-33.09L29.44-33.09L29.44-33.09Q29.44-38.66 23.94-38.66L23.94-38.66L22.40-38.66L22.40-38.66Q22.02-38.66 21.70-38.59L21.70-38.59L14.34 0L0.45 0L8.32-41.92L8.32-41.92Q15.17-42.56 19.14-42.62L19.14-42.62L19.14-42.62Q23.10-42.69 26.11-42.69ZM44.90-1.92L44.90-1.92L44.90-1.92Q43.39-3.58 42.72-6.21L42.72-6.21L42.72-6.21Q42.05-8.83 42.05-13.12L42.05-13.12L42.05-13.12Q42.05-17.41 43.52-21.31L43.52-21.31L43.52-21.31Q44.99-25.22 47.68-28.03L47.68-28.03L47.68-28.03Q53.18-33.92 62.27-33.92L62.27-33.92L62.27-33.92Q65.54-33.92 67.90-32.83L67.90-32.83L78.85-33.92L74.11-8.96L74.11-8.96Q73.92-8.19 73.92-6.78L73.92-6.78L73.92-6.78Q73.92-5.38 74.78-4.48L74.78-4.48L74.78-4.48Q75.65-3.58 76.93-3.46L76.93-3.46L76.93-3.46Q76.29-1.28 73.95 0L73.95 0L73.95 0Q71.62 1.28 68.99 1.28L68.99 1.28L68.99 1.28Q66.37 1.28 64.61 0.29L64.61 0.29L64.61 0.29Q62.85-0.70 62.34-2.37L62.34-2.37L62.34-2.37Q61.31-0.77 59.14 0.26L59.14 0.26L59.14 0.26Q56.96 1.28 54.05 1.28L54.05 1.28L54.05 1.28Q51.14 1.28 48.77 0.51L48.77 0.51L48.77 0.51Q46.40-0.26 44.90-1.92ZM58.40-27.90L58.40-27.90L58.40-27.90Q57.66-26.75 57.02-24.80L57.02-24.80L57.02-24.80Q56.38-22.85 55.33-17.63L55.33-17.63L55.33-17.63Q54.27-12.42 54.27-8.70L54.27-8.70L54.27-8.70Q54.27-4.99 54.85-3.90L54.85-3.90L54.85-3.90Q55.42-2.82 56.45-2.82L56.45-2.82L56.45-2.82Q58.50-2.82 60-4.77L60-4.77L60-4.77Q61.50-6.72 62.08-10.18L62.08-10.18L65.47-28.93L65.47-28.93Q64.13-30.08 62.56-30.08L62.56-30.08L62.56-30.08Q60.99-30.08 60.06-29.57L60.06-29.57L60.06-29.57Q59.14-29.06 58.40-27.90ZM83.33-6.40L83.33-6.40L83.33-6.40Q83.33-8.13 84.22-12.48L84.22-12.48L87.62-29.76L83.84-29.76L84.10-31.68L84.10-31.68Q91.78-33.98 99.20-39.62L99.20-39.62L102.27-39.62L100.74-32.64L105.73-32.64L105.15-29.76L100.22-29.76L96.96-12.48L96.96-12.48Q96.13-8.51 96.13-7.17L96.13-7.17L96.13-7.17Q96.13-4.10 98.82-3.46L98.82-3.46L98.82-3.46Q98.18-1.28 95.87 0L95.87 0L95.87 0Q93.57 1.28 90.30 1.28L90.30 1.28L90.30 1.28Q87.04 1.28 85.18-0.77L85.18-0.77L85.18-0.77Q83.33-2.82 83.33-6.40ZM131.07-10.82L131.07-10.82L131.07-10.82Q132.67-9.73 132.67-7.33L132.67-7.33L132.67-7.33Q132.67-4.93 131.46-3.39L131.46-3.39L131.46-3.39Q130.24-1.86 128.26-0.83L128.26-0.83L128.26-0.83Q124.16 1.28 119.74 1.28L119.74 1.28L119.74 1.28Q115.33 1.28 112.74 0.32L112.74 0.32L112.74 0.32Q110.14-0.64 108.42-2.43L108.42-2.43L108.42-2.43Q105.02-5.82 105.02-12.03L105.02-12.03L105.02-12.03Q105.02-21.70 110.27-27.58L110.27-27.58L110.27-27.58Q115.90-33.92 125.70-33.92L125.70-33.92L125.70-33.92Q131.78-33.92 134.78-31.36L134.78-31.36L134.78-31.36Q137.02-29.44 137.02-26.30L137.02-26.30L137.02-26.30Q137.02-15.04 117.57-15.04L117.57-15.04L117.57-15.04Q117.31-13.38 117.31-11.97L117.31-11.97L117.31-11.97Q117.31-9.02 118.62-7.90L118.62-7.90L118.62-7.90Q119.94-6.78 122.37-6.78L122.37-6.78L122.37-6.78Q124.80-6.78 127.39-7.90L127.39-7.90L127.39-7.90Q129.98-9.02 131.07-10.82ZM118.02-17.79L118.02-17.79L118.02-17.79Q122.56-17.79 125.18-20.61L125.18-20.61L125.18-20.61Q127.81-23.30 127.81-27.58L127.81-27.58L127.81-27.58Q127.81-29.06 127.26-29.86L127.26-29.86L127.26-29.86Q126.72-30.66 125.63-30.66L125.63-30.66L125.63-30.66Q124.54-30.66 123.62-30.24L123.62-30.24L123.62-30.24Q122.69-29.82 121.73-28.42L121.73-28.42L121.73-28.42Q119.36-25.22 118.02-17.79ZM166.27 1.28L166.27 1.28L166.27 1.28Q158.53 1.28 158.53-4.74L158.53-4.74L158.53-4.74Q158.59-6.40 159.10-9.22L159.10-9.22L160.26-15.10L160.26-15.10Q161.98-23.42 161.98-25.28L161.98-25.28L161.98-25.28Q161.98-28.99 159.81-28.99L159.81-28.99L159.81-28.99Q156.16-28.99 154.24-19.46L154.24-19.46L150.46 0L137.60 1.28L144.26-32.70L154.75-33.92L153.73-27.65L153.73-27.65Q156.74-33.92 165.95-33.92L165.95-33.92L165.95-33.92Q170.43-33.92 172.32-32.03L172.32-32.03L172.32-32.03Q174.21-30.14 174.21-25.92L174.21-25.92L174.21-25.92Q174.21-21.95 172.16-12.67L172.16-12.67L172.16-12.67Q171.20-8.51 171.20-6.94L171.20-6.94L171.20-6.94Q171.20-5.38 172.06-4.48L172.06-4.48L172.06-4.48Q172.93-3.58 174.21-3.46L174.21-3.46L174.21-3.46Q173.57-1.28 171.36 0L171.36 0L171.36 0Q169.15 1.28 166.27 1.28ZM183.62 7.62L183.62 7.62L183.62 7.62Q186.94 7.36 189.38 3.20L189.38 3.20L189.38 3.20Q191.23 0 192.45-5.89L192.45-5.89L197.63-32.64L210.50-33.92L205.06-5.89L205.06-5.89Q202.94 4.80 199.68 8.32L199.68 8.32L199.68 8.32Q197.95 10.24 195.71 10.88L195.71 10.88L195.71 10.88Q193.47 11.52 190.91 11.52L190.91 11.52L190.91 11.52Q185.54 11.52 183.62 7.62ZM198.66-41.54L198.66-41.54L198.66-41.54Q198.66-44.03 200.74-45.38L200.74-45.38L200.74-45.38Q202.82-46.72 205.82-46.72L205.82-46.72L205.82-46.72Q208.83-46.72 210.66-45.38L210.66-45.38L210.66-45.38Q212.48-44.03 212.48-41.54L212.48-41.54L212.48-41.54Q212.48-39.04 210.46-37.76L210.46-37.76L210.46-37.76Q208.45-36.48 205.44-36.48L205.44-36.48L205.44-36.48Q202.43-36.48 200.54-37.76L200.54-37.76L200.54-37.76Q198.66-39.04 198.66-41.54ZM215.58-1.92L215.58-1.92L215.58-1.92Q214.08-3.58 213.41-6.21L213.41-6.21L213.41-6.21Q212.74-8.83 212.74-13.12L212.74-13.12L212.74-13.12Q212.74-17.41 214.21-21.31L214.21-21.31L214.21-21.31Q215.68-25.22 218.37-28.03L218.37-28.03L218.37-28.03Q223.87-33.92 232.96-33.92L232.96-33.92L232.96-33.92Q236.22-33.92 238.59-32.83L238.59-32.83L249.54-33.92L244.80-8.96L244.80-8.96Q244.61-8.19 244.61-6.78L244.61-6.78L244.61-6.78Q244.61-5.38 245.47-4.48L245.47-4.48L245.47-4.48Q246.34-3.58 247.62-3.46L247.62-3.46L247.62-3.46Q246.98-1.28 244.64 0L244.64 0L244.64 0Q242.30 1.28 239.68 1.28L239.68 1.28L239.68 1.28Q237.06 1.28 235.30 0.29L235.30 0.29L235.30 0.29Q233.54-0.70 233.02-2.37L233.02-2.37L233.02-2.37Q232.00-0.77 229.82 0.26L229.82 0.26L229.82 0.26Q227.65 1.28 224.74 1.28L224.74 1.28L224.74 1.28Q221.82 1.28 219.46 0.51L219.46 0.51L219.46 0.51Q217.09-0.26 215.58-1.92ZM229.09-27.90L229.09-27.90L229.09-27.90Q228.35-26.75 227.71-24.80L227.71-24.80L227.71-24.80Q227.07-22.85 226.02-17.63L226.02-17.63L226.02-17.63Q224.96-12.42 224.96-8.70L224.96-8.70L224.96-8.70Q224.96-4.99 225.54-3.90L225.54-3.90L225.54-3.90Q226.11-2.82 227.14-2.82L227.14-2.82L227.14-2.82Q229.18-2.82 230.69-4.77L230.69-4.77L230.69-4.77Q232.19-6.72 232.77-10.18L232.77-10.18L236.16-28.93L236.16-28.93Q234.82-30.08 233.25-30.08L233.25-30.08L233.25-30.08Q231.68-30.08 230.75-29.57L230.75-29.57L230.75-29.57Q229.82-29.06 229.09-27.90ZM258.11 8.83L258.11 8.83L258.11 8.83Q261.38 8.45 263.42 4.22L263.42 4.22L263.42 4.22Q265.54-0.06 267.46-9.92L267.46-9.92L273.66-42.24L287.55-42.24L281.34-9.92L281.34-9.92Q278.98 2.62 275.07 7.55L275.07 7.55L275.07 7.55Q273.02 10.11 270.43 11.14L270.43 11.14L270.43 11.14Q267.84 12.16 265.02 12.16L265.02 12.16L265.02 12.16Q262.21 12.16 260.38 11.14L260.38 11.14L260.38 11.14Q258.56 10.11 258.11 8.83ZM314.88-10.82L314.88-10.82L314.88-10.82Q316.48-9.73 316.48-7.33L316.48-7.33L316.48-7.33Q316.48-4.93 315.26-3.39L315.26-3.39L315.26-3.39Q314.05-1.86 312.06-0.83L312.06-0.83L312.06-0.83Q307.97 1.28 303.55 1.28L303.55 1.28L303.55 1.28Q299.14 1.28 296.54 0.32L296.54 0.32L296.54 0.32Q293.95-0.64 292.22-2.43L292.22-2.43L292.22-2.43Q288.83-5.82 288.83-12.03L288.83-12.03L288.83-12.03Q288.83-21.70 294.08-27.58L294.08-27.58L294.08-27.58Q299.71-33.92 309.50-33.92L309.50-33.92L309.50-33.92Q315.58-33.92 318.59-31.36L318.59-31.36L318.59-31.36Q320.83-29.44 320.83-26.30L320.83-26.30L320.83-26.30Q320.83-15.04 301.38-15.04L301.38-15.04L301.38-15.04Q301.12-13.38 301.12-11.97L301.12-11.97L301.12-11.97Q301.12-9.02 302.43-7.90L302.43-7.90L302.43-7.90Q303.74-6.78 306.18-6.78L306.18-6.78L306.18-6.78Q308.61-6.78 311.20-7.90L311.20-7.90L311.20-7.90Q313.79-9.02 314.88-10.82ZM301.82-17.79L301.82-17.79L301.82-17.79Q306.37-17.79 308.99-20.61L308.99-20.61L308.99-20.61Q311.62-23.30 311.62-27.58L311.62-27.58L311.62-27.58Q311.62-29.06 311.07-29.86L311.07-29.86L311.07-29.86Q310.53-30.66 309.44-30.66L309.44-30.66L309.44-30.66Q308.35-30.66 307.42-30.24L307.42-30.24L307.42-30.24Q306.50-29.82 305.54-28.42L305.54-28.42L305.54-28.42Q303.17-25.22 301.82-17.79ZM342.14-22.46L342.14-22.46L342.14-22.46Q343.04-24.83 343.04-26.88L343.04-26.88L343.04-26.88Q343.04-30.66 339.97-30.66L339.97-30.66L339.97-30.66Q338.37-30.66 337.06-29.22L337.06-29.22L337.06-29.22Q335.74-27.78 335.74-25.98L335.74-25.98L335.74-25.98Q335.74-24.70 336.77-23.68L336.77-23.68L336.77-23.68Q338.24-22.27 342.02-19.97L342.02-19.97L342.02-19.97Q345.79-17.66 347.23-15.78L347.23-15.78L347.23-15.78Q348.67-13.89 348.67-11.30L348.67-11.30L348.67-11.30Q348.67-8.70 347.42-6.34L347.42-6.34L347.42-6.34Q346.18-3.97 343.94-2.30L343.94-2.30L343.94-2.30Q339.14 1.28 331.46 1.28L331.46 1.28L331.46 1.28Q327.30 1.28 324.10-0.90L324.10-0.90L324.10-0.90Q320.90-3.01 320.90-5.50L320.90-5.50L320.90-5.50Q320.90-8 322.72-9.47L322.72-9.47L322.72-9.47Q324.54-10.94 327.23-10.94L327.23-10.94L327.23-10.94Q329.92-10.94 331.58-9.92L331.58-9.92L331.58-9.92Q330.75-7.81 330.75-6.40L330.75-6.40L330.75-6.40Q330.75-2.18 334.34-2.18L334.34-2.18L334.34-2.18Q335.87-2.18 336.90-3.14L336.90-3.14L336.90-3.14Q337.92-4.10 337.92-5.76L337.92-5.76L337.92-5.76Q337.92-9.02 332.42-12.48L332.42-12.48L332.42-12.48Q327.94-15.42 326.91-16.58L326.91-16.58L326.91-16.58Q325.18-18.62 325.18-21.18L325.18-21.18L325.18-21.18Q325.18-23.74 326.40-26.18L326.40-26.18L326.40-26.18Q327.62-28.61 329.86-30.34L329.86-30.34L329.86-30.34Q334.53-33.92 342.66-33.92L342.66-33.92L342.66-33.92Q346.82-33.92 349.28-32.26L349.28-32.26L349.28-32.26Q351.74-30.59 351.74-27.78L351.74-27.78L351.74-27.78Q351.74-24.96 350.05-23.36L350.05-23.36L350.05-23.36Q348.35-21.76 345.28-21.76L345.28-21.76L345.28-21.76Q343.17-21.76 342.14-22.46ZM373.25-22.46L373.25-22.46L373.25-22.46Q374.14-24.83 374.14-26.88L374.14-26.88L374.14-26.88Q374.14-30.66 371.07-30.66L371.07-30.66L371.07-30.66Q369.47-30.66 368.16-29.22L368.16-29.22L368.16-29.22Q366.85-27.78 366.85-25.98L366.85-25.98L366.85-25.98Q366.85-24.70 367.87-23.68L367.87-23.68L367.87-23.68Q369.34-22.27 373.12-19.97L373.12-19.97L373.12-19.97Q376.90-17.66 378.34-15.78L378.34-15.78L378.34-15.78Q379.78-13.89 379.78-11.30L379.78-11.30L379.78-11.30Q379.78-8.70 378.53-6.34L378.53-6.34L378.53-6.34Q377.28-3.97 375.04-2.30L375.04-2.30L375.04-2.30Q370.24 1.28 362.56 1.28L362.56 1.28L362.56 1.28Q358.40 1.28 355.20-0.90L355.20-0.90L355.20-0.90Q352-3.01 352-5.50L352-5.50L352-5.50Q352-8 353.82-9.47L353.82-9.47L353.82-9.47Q355.65-10.94 358.34-10.94L358.34-10.94L358.34-10.94Q361.02-10.94 362.69-9.92L362.69-9.92L362.69-9.92Q361.86-7.81 361.86-6.40L361.86-6.40L361.86-6.40Q361.86-2.18 365.44-2.18L365.44-2.18L365.44-2.18Q366.98-2.18 368-3.14L368-3.14L368-3.14Q369.02-4.10 369.02-5.76L369.02-5.76L369.02-5.76Q369.02-9.02 363.52-12.48L363.52-12.48L363.52-12.48Q359.04-15.42 358.02-16.58L358.02-16.58L358.02-16.58Q356.29-18.62 356.29-21.18L356.29-21.18L356.29-21.18Q356.29-23.74 357.50-26.18L357.50-26.18L357.50-26.18Q358.72-28.61 360.96-30.34L360.96-30.34L360.96-30.34Q365.63-33.92 373.76-33.92L373.76-33.92L373.76-33.92Q377.92-33.92 380.38-32.26L380.38-32.26L380.38-32.26Q382.85-30.59 382.85-27.78L382.85-27.78L382.85-27.78Q382.85-24.96 381.15-23.36L381.15-23.36L381.15-23.36Q379.46-21.76 376.38-21.76L376.38-21.76L376.38-21.76Q374.27-21.76 373.25-22.46ZM411.14-10.82L411.14-10.82L411.14-10.82Q412.74-9.73 412.74-7.33L412.74-7.33L412.74-7.33Q412.74-4.93 411.52-3.39L411.52-3.39L411.52-3.39Q410.30-1.86 408.32-0.83L408.32-0.83L408.32-0.83Q404.22 1.28 399.81 1.28L399.81 1.28L399.81 1.28Q395.39 1.28 392.80 0.32L392.80 0.32L392.80 0.32Q390.21-0.64 388.48-2.43L388.48-2.43L388.48-2.43Q385.09-5.82 385.09-12.03L385.09-12.03L385.09-12.03Q385.09-21.70 390.34-27.58L390.34-27.58L390.34-27.58Q395.97-33.92 405.76-33.92L405.76-33.92L405.76-33.92Q411.84-33.92 414.85-31.36L414.85-31.36L414.85-31.36Q417.09-29.44 417.09-26.30L417.09-26.30L417.09-26.30Q417.09-15.04 397.63-15.04L397.63-15.04L397.63-15.04Q397.38-13.38 397.38-11.97L397.38-11.97L397.38-11.97Q397.38-9.02 398.69-7.90L398.69-7.90L398.69-7.90Q400-6.78 402.43-6.78L402.43-6.78L402.43-6.78Q404.86-6.78 407.46-7.90L407.46-7.90L407.46-7.90Q410.05-9.02 411.14-10.82ZM398.08-17.79L398.08-17.79L398.08-17.79Q402.62-17.79 405.25-20.61L405.25-20.61L405.25-20.61Q407.87-23.30 407.87-27.58L407.87-27.58L407.87-27.58Q407.87-29.06 407.33-29.86L407.33-29.86L407.33-29.86Q406.78-30.66 405.70-30.66L405.70-30.66L405.70-30.66Q404.61-30.66 403.68-30.24L403.68-30.24L403.68-30.24Q402.75-29.82 401.79-28.42L401.79-28.42L401.79-28.42Q399.42-25.22 398.08-17.79ZM446.34 1.28L446.34 1.28L446.34 1.28Q438.59 1.28 438.59-4.74L438.59-4.74L438.59-4.74Q438.66-6.40 439.17-9.22L439.17-9.22L440.32-15.10L440.32-15.10Q442.05-23.42 442.05-25.28L442.05-25.28L442.05-25.28Q442.05-28.99 439.87-28.99L439.87-28.99L439.87-28.99Q436.22-28.99 434.30-19.46L434.30-19.46L430.53 0L417.66 1.28L424.32-32.70L434.82-33.92L433.79-27.65L433.79-27.65Q436.80-33.92 446.02-33.92L446.02-33.92L446.02-33.92Q450.50-33.92 452.38-32.03L452.38-32.03L452.38-32.03Q454.27-30.14 454.27-25.92L454.27-25.92L454.27-25.92Q454.27-21.95 452.22-12.67L452.22-12.67L452.22-12.67Q451.26-8.51 451.26-6.94L451.26-6.94L451.26-6.94Q451.26-5.38 452.13-4.48L452.13-4.48L452.13-4.48Q452.99-3.58 454.27-3.46L454.27-3.46L454.27-3.46Q453.63-1.28 451.42 0L451.42 0L451.42 0Q449.22 1.28 446.34 1.28ZM489.09-30.34L489.09-30.34L489.09-30.34Q492.54-33.92 499.84-33.92L499.84-33.92L499.84-33.92Q503.87-33.92 506.08-31.78L506.08-31.78L506.08-31.78Q508.29-29.63 508.29-25.70L508.29-25.70L508.29-25.70Q508.29-21.76 506.08-18.98L506.08-18.98L506.08-18.98Q503.87-16.19 499.78-15.04L499.78-15.04L499.78-15.04Q500.10-13.76 500.54-12.42L500.54-12.42L501.44-9.86L501.44-9.86Q502.66-6.59 503.62-5.44L503.62-5.44L503.62-5.44Q504.58-4.29 505.86-3.90L505.86-3.90L505.86-3.90Q505.15-1.28 502.59 0.13L502.59 0.13L502.59 0.13Q500.54 1.28 497.73 1.28L497.73 1.28L497.73 1.28Q489.47 1.28 488.38-11.46L488.38-11.46L488.38-11.46Q488.19-13.25 488.19-15.04L488.19-15.04L488.19-15.04Q491.39-15.94 493.63-18.94L493.63-18.94L493.63-18.94Q495.87-21.95 495.87-25.47L495.87-25.47L495.87-25.47Q495.87-28.99 493.38-28.99L493.38-28.99L493.38-28.99Q491.58-28.99 490.18-27.01L490.18-27.01L490.18-27.01Q488.77-25.02 488.13-21.63L488.13-21.63L483.90 0L470.98 1.28L479.94-44.80L492.80-46.08L491.33-38.46L491.33-38.46Q490.37-33.09 489.09-30.34ZM514.02-1.92L514.02-1.92L514.02-1.92Q512.51-3.58 511.84-6.21L511.84-6.21L511.84-6.21Q511.17-8.83 511.17-13.12L511.17-13.12L511.17-13.12Q511.17-17.41 512.64-21.31L512.64-21.31L512.64-21.31Q514.11-25.22 516.80-28.03L516.80-28.03L516.80-28.03Q522.30-33.92 531.39-33.92L531.39-33.92L531.39-33.92Q534.66-33.92 537.02-32.83L537.02-32.83L547.97-33.92L543.23-8.96L543.23-8.96Q543.04-8.19 543.04-6.78L543.04-6.78L543.04-6.78Q543.04-5.38 543.90-4.48L543.90-4.48L543.90-4.48Q544.77-3.58 546.05-3.46L546.05-3.46L546.05-3.46Q545.41-1.28 543.07 0L543.07 0L543.07 0Q540.74 1.28 538.11 1.28L538.11 1.28L538.11 1.28Q535.49 1.28 533.73 0.29L533.73 0.29L533.73 0.29Q531.97-0.70 531.46-2.37L531.46-2.37L531.46-2.37Q530.43-0.77 528.26 0.26L528.26 0.26L528.26 0.26Q526.08 1.28 523.17 1.28L523.17 1.28L523.17 1.28Q520.26 1.28 517.89 0.51L517.89 0.51L517.89 0.51Q515.52-0.26 514.02-1.92ZM527.52-27.90L527.52-27.90L527.52-27.90Q526.78-26.75 526.14-24.80L526.14-24.80L526.14-24.80Q525.50-22.85 524.45-17.63L524.45-17.63L524.45-17.63Q523.39-12.42 523.39-8.70L523.39-8.70L523.39-8.70Q523.39-4.99 523.97-3.90L523.97-3.90L523.97-3.90Q524.54-2.82 525.57-2.82L525.57-2.82L525.57-2.82Q527.62-2.82 529.12-4.77L529.12-4.77L529.12-4.77Q530.62-6.72 531.20-10.18L531.20-10.18L534.59-28.93L534.59-28.93Q533.25-30.08 531.68-30.08L531.68-30.08L531.68-30.08Q530.11-30.08 529.18-29.57L529.18-29.57L529.18-29.57Q528.26-29.06 527.52-27.90ZM552.45-6.40L552.45-6.40L552.45-6.40Q552.45-8.13 553.34-12.48L553.34-12.48L556.74-29.76L552.96-29.76L553.22-31.68L553.22-31.68Q560.90-33.98 568.32-39.62L568.32-39.62L571.39-39.62L569.86-32.64L574.85-32.64L574.27-29.76L569.34-29.76L566.08-12.48L566.08-12.48Q565.25-8.51 565.25-7.17L565.25-7.17L565.25-7.17Q565.25-4.10 567.94-3.46L567.94-3.46L567.94-3.46Q567.30-1.28 564.99 0L564.99 0L564.99 0Q562.69 1.28 559.42 1.28L559.42 1.28L559.42 1.28Q556.16 1.28 554.30-0.77L554.30-0.77L554.30-0.77Q552.45-2.82 552.45-6.40ZM575.55-6.40L575.55-6.40L575.55-6.40Q575.55-8.13 576.45-12.48L576.45-12.48L579.84-29.76L576.06-29.76L576.32-31.68L576.32-31.68Q584-33.98 591.42-39.62L591.42-39.62L594.50-39.62L592.96-32.64L597.95-32.64L597.38-29.76L592.45-29.76L589.18-12.48L589.18-12.48Q588.35-8.51 588.35-7.17L588.35-7.17L588.35-7.17Q588.35-4.10 591.04-3.46L591.04-3.46L591.04-3.46Q590.40-1.28 588.10 0L588.10 0L588.10 0Q585.79 1.28 582.53 1.28L582.53 1.28L582.53 1.28Q579.26 1.28 577.41-0.77L577.41-0.77L577.41-0.77Q575.55-2.82 575.55-6.40ZM611.33 1.28L611.33 1.28L611.33 1.28Q597.25 1.28 597.25-11.97L597.25-11.97L597.25-11.97Q597.25-21.38 602.43-27.46L602.43-27.46L602.43-27.46Q607.94-33.92 617.47-33.92L617.47-33.92L617.47-33.92Q624.38-33.92 627.90-30.72L627.90-30.72L627.90-30.72Q631.42-27.52 631.42-20.80L631.42-20.80L631.42-20.80Q631.42-10.56 625.92-4.61L625.92-4.61L625.92-4.61Q620.54 1.28 611.33 1.28ZM612.99-26.56L612.99-26.56L612.99-26.56Q612.22-24.83 611.62-22.24L611.62-22.24L611.62-22.24Q611.01-19.65 610.24-15.55L610.24-15.55L610.24-15.55Q609.47-11.46 609.47-6.40L609.47-6.40L609.47-6.40Q609.47-4.74 610.02-3.65L610.02-3.65L610.02-3.65Q610.56-2.56 612.03-2.56L612.03-2.56L612.03-2.56Q613.50-2.56 614.43-3.26L614.43-3.26L614.43-3.26Q615.36-3.97 616.06-5.63L616.06-5.63L616.06-5.63Q617.34-8.58 618.37-14.05L618.37-14.05L618.37-14.05Q619.39-19.52 619.49-21.89L619.49-21.89L619.49-21.89Q619.58-24.26 619.58-26.02L619.58-26.02L619.58-26.02Q619.58-27.78 619.07-28.93L619.07-28.93L619.07-28.93Q618.56-30.08 617.12-30.08L617.12-30.08L617.12-30.08Q615.68-30.08 614.72-29.18L614.72-29.18L614.72-29.18Q613.76-28.29 612.99-26.56ZM654.34-22.46L654.34-22.46L654.34-22.46Q655.23-24.83 655.23-26.88L655.23-26.88L655.23-26.88Q655.23-30.66 652.16-30.66L652.16-30.66L652.16-30.66Q650.56-30.66 649.25-29.22L649.25-29.22L649.25-29.22Q647.94-27.78 647.94-25.98L647.94-25.98L647.94-25.98Q647.94-24.70 648.96-23.68L648.96-23.68L648.96-23.68Q650.43-22.27 654.21-19.97L654.21-19.97L654.21-19.97Q657.98-17.66 659.42-15.78L659.42-15.78L659.42-15.78Q660.86-13.89 660.86-11.30L660.86-11.30L660.86-11.30Q660.86-8.70 659.62-6.34L659.62-6.34L659.62-6.34Q658.37-3.97 656.13-2.30L656.13-2.30L656.13-2.30Q651.33 1.28 643.65 1.28L643.65 1.28L643.65 1.28Q639.49 1.28 636.29-0.90L636.29-0.90L636.29-0.90Q633.09-3.01 633.09-5.50L633.09-5.50L633.09-5.50Q633.09-8 634.91-9.47L634.91-9.47L634.91-9.47Q636.74-10.94 639.42-10.94L639.42-10.94L639.42-10.94Q642.11-10.94 643.78-9.92L643.78-9.92L643.78-9.92Q642.94-7.81 642.94-6.40L642.94-6.40L642.94-6.40Q642.94-2.18 646.53-2.18L646.53-2.18L646.53-2.18Q648.06-2.18 649.09-3.14L649.09-3.14L649.09-3.14Q650.11-4.10 650.11-5.76L650.11-5.76L650.11-5.76Q650.11-9.02 644.61-12.48L644.61-12.48L644.61-12.48Q640.13-15.42 639.10-16.58L639.10-16.58L639.10-16.58Q637.38-18.62 637.38-21.18L637.38-21.18L637.38-21.18Q637.38-23.74 638.59-26.18L638.59-26.18L638.59-26.18Q639.81-28.61 642.05-30.34L642.05-30.34L642.05-30.34Q646.72-33.92 654.85-33.92L654.85-33.92L654.85-33.92Q659.01-33.92 661.47-32.26L661.47-32.26L661.47-32.26Q663.94-30.59 663.94-27.78L663.94-27.78L663.94-27.78Q663.94-24.96 662.24-23.36L662.24-23.36L662.24-23.36Q660.54-21.76 657.47-21.76L657.47-21.76L657.47-21.76Q655.36-21.76 654.34-22.46ZM686.66-7.23L686.66-7.23L686.66-7.23Q683.33-3.78 677.25-3.78L677.25-3.78L677.25-3.78Q669.63-3.78 668.03-9.34L668.03-9.34L668.03-9.34Q667.52-11.01 667.52-12.86L667.52-12.86L667.52-12.86Q667.52-14.72 667.90-16.64L667.90-16.64L670.91-32.64L683.90-33.92L680.38-15.30L680.38-15.30Q680.26-14.46 680.06-13.57L680.06-13.57L680.06-13.57Q679.87-12.67 679.87-11.74L679.87-11.74L679.87-11.74Q679.87-10.82 680.19-10.21L680.19-10.21L680.19-10.21Q680.51-9.60 680.96-9.22L680.96-9.22L680.96-9.22Q681.73-8.70 683.10-8.70L683.10-8.70L683.10-8.70Q684.48-8.70 685.66-10.37L685.66-10.37L685.66-10.37Q686.85-12.03 687.42-14.91L687.42-14.91L690.94-32.64L703.55-33.92L698.75-8.77L698.75-8.77Q696.38 3.52 691.52 8.38L691.52 8.38L691.52 8.38Q689.02 10.88 685.79 11.87L685.79 11.87L685.79 11.87Q682.56 12.86 678.40 12.86L678.40 12.86L678.40 12.86Q671.68 12.86 667.84 10.75L667.84 10.75L667.84 10.75Q664.00 8.64 664.00 5.12L664.00 5.12L664.00 5.12Q664.00 2.50 665.98 0.99L665.98 0.99L665.98 0.99Q667.97-0.51 671.04-0.51L671.04-0.51L671.04-0.51Q673.73-0.51 675.78 0.64L675.78 0.64L675.78 0.64Q676.99 1.34 677.57 2.24L677.57 2.24L677.57 2.24Q676.10 3.52 676.10 5.63L676.10 5.63L676.10 5.63Q676.10 8.45 678.66 8.45L678.66 8.45L678.66 8.45Q682.88 8.45 685.31-1.28L685.31-1.28L685.31-1.28Q686.02-4.16 686.66-7.23ZM724.99-22.46L724.99-22.46L724.99-22.46Q725.89-24.83 725.89-26.88L725.89-26.88L725.89-26.88Q725.89-30.66 722.82-30.66L722.82-30.66L722.82-30.66Q721.22-30.66 719.90-29.22L719.90-29.22L719.90-29.22Q718.59-27.78 718.59-25.98L718.59-25.98L718.59-25.98Q718.59-24.70 719.62-23.68L719.62-23.68L719.62-23.68Q721.09-22.27 724.86-19.97L724.86-19.97L724.86-19.97Q728.64-17.66 730.08-15.78L730.08-15.78L730.08-15.78Q731.52-13.89 731.52-11.30L731.52-11.30L731.52-11.30Q731.52-8.70 730.27-6.34L730.27-6.34L730.27-6.34Q729.02-3.97 726.78-2.30L726.78-2.30L726.78-2.30Q721.98 1.28 714.30 1.28L714.30 1.28L714.30 1.28Q710.14 1.28 706.94-0.90L706.94-0.90L706.94-0.90Q703.74-3.01 703.74-5.50L703.74-5.50L703.74-5.50Q703.74-8 705.57-9.47L705.57-9.47L705.57-9.47Q707.39-10.94 710.08-10.94L710.08-10.94L710.08-10.94Q712.77-10.94 714.43-9.92L714.43-9.92L714.43-9.92Q713.60-7.81 713.60-6.40L713.60-6.40L713.60-6.40Q713.60-2.18 717.18-2.18L717.18-2.18L717.18-2.18Q718.72-2.18 719.74-3.14L719.74-3.14L719.74-3.14Q720.77-4.10 720.77-5.76L720.77-5.76L720.77-5.76Q720.77-9.02 715.26-12.48L715.26-12.48L715.26-12.48Q710.78-15.42 709.76-16.58L709.76-16.58L709.76-16.58Q708.03-18.62 708.03-21.18L708.03-21.18L708.03-21.18Q708.03-23.74 709.25-26.18L709.25-26.18L709.25-26.18Q710.46-28.61 712.70-30.34L712.70-30.34L712.70-30.34Q717.38-33.92 725.50-33.92L725.50-33.92L725.50-33.92Q729.66-33.92 732.13-32.26L732.13-32.26L732.13-32.26Q734.59-30.59 734.59-27.78L734.59-27.78L734.59-27.78Q734.59-24.96 732.90-23.36L732.90-23.36L732.90-23.36Q731.20-21.76 728.13-21.76L728.13-21.76L728.13-21.76Q726.02-21.76 724.99-22.46ZM737.98-6.40L737.98-6.40L737.98-6.40Q737.98-8.13 738.88-12.48L738.88-12.48L742.27-29.76L738.50-29.76L738.75-31.68L738.75-31.68Q746.43-33.98 753.86-39.62L753.86-39.62L756.93-39.62L755.39-32.64L760.38-32.64L759.81-29.76L754.88-29.76L751.62-12.48L751.62-12.48Q750.78-8.51 750.78-7.17L750.78-7.17L750.78-7.17Q750.78-4.10 753.47-3.46L753.47-3.46L753.47-3.46Q752.83-1.28 750.53 0L750.53 0L750.53 0Q748.22 1.28 744.96 1.28L744.96 1.28L744.96 1.28Q741.70 1.28 739.84-0.77L739.84-0.77L739.84-0.77Q737.98-2.82 737.98-6.40ZM785.73-10.82L785.73-10.82L785.73-10.82Q787.33-9.73 787.33-7.33L787.33-7.33L787.33-7.33Q787.33-4.93 786.11-3.39L786.11-3.39L786.11-3.39Q784.90-1.86 782.91-0.83L782.91-0.83L782.91-0.83Q778.82 1.28 774.40 1.28L774.40 1.28L774.40 1.28Q769.98 1.28 767.39 0.32L767.39 0.32L767.39 0.32Q764.80-0.64 763.07-2.43L763.07-2.43L763.07-2.43Q759.68-5.82 759.68-12.03L759.68-12.03L759.68-12.03Q759.68-21.70 764.93-27.58L764.93-27.58L764.93-27.58Q770.56-33.92 780.35-33.92L780.35-33.92L780.35-33.92Q786.43-33.92 789.44-31.36L789.44-31.36L789.44-31.36Q791.68-29.44 791.68-26.30L791.68-26.30L791.68-26.30Q791.68-15.04 772.22-15.04L772.22-15.04L772.22-15.04Q771.97-13.38 771.97-11.97L771.97-11.97L771.97-11.97Q771.97-9.02 773.28-7.90L773.28-7.90L773.28-7.90Q774.59-6.78 777.02-6.78L777.02-6.78L777.02-6.78Q779.46-6.78 782.05-7.90L782.05-7.90L782.05-7.90Q784.64-9.02 785.73-10.82ZM772.67-17.79L772.67-17.79L772.67-17.79Q777.22-17.79 779.84-20.61L779.84-20.61L779.84-20.61Q782.46-23.30 782.46-27.58L782.46-27.58L782.46-27.58Q782.46-29.06 781.92-29.86L781.92-29.86L781.92-29.86Q781.38-30.66 780.29-30.66L780.29-30.66L780.29-30.66Q779.20-30.66 778.27-30.24L778.27-30.24L778.27-30.24Q777.34-29.82 776.38-28.42L776.38-28.42L776.38-28.42Q774.02-25.22 772.67-17.79ZM819.78-10.82L819.78-10.82L819.78-10.82Q821.38-9.73 821.38-7.33L821.38-7.33L821.38-7.33Q821.38-4.93 820.16-3.39L820.16-3.39L820.16-3.39Q818.94-1.86 816.96-0.83L816.96-0.83L816.96-0.83Q812.86 1.28 808.45 1.28L808.45 1.28L808.45 1.28Q804.03 1.28 801.44 0.32L801.44 0.32L801.44 0.32Q798.85-0.64 797.12-2.43L797.12-2.43L797.12-2.43Q793.73-5.82 793.73-12.03L793.73-12.03L793.73-12.03Q793.73-21.70 798.98-27.58L798.98-27.58L798.98-27.58Q804.61-33.92 814.40-33.92L814.40-33.92L814.40-33.92Q820.48-33.92 823.49-31.36L823.49-31.36L823.49-31.36Q825.73-29.44 825.73-26.30L825.73-26.30L825.73-26.30Q825.73-15.04 806.27-15.04L806.27-15.04L806.27-15.04Q806.02-13.38 806.02-11.97L806.02-11.97L806.02-11.97Q806.02-9.02 807.33-7.90L807.33-7.90L807.33-7.90Q808.64-6.78 811.07-6.78L811.07-6.78L811.07-6.78Q813.50-6.78 816.10-7.90L816.10-7.90L816.10-7.90Q818.69-9.02 819.78-10.82ZM806.72-17.79L806.72-17.79L806.72-17.79Q811.26-17.79 813.89-20.61L813.89-20.61L813.89-20.61Q816.51-23.30 816.51-27.58L816.51-27.58L816.51-27.58Q816.51-29.06 815.97-29.86L815.97-29.86L815.97-29.86Q815.42-30.66 814.34-30.66L814.34-30.66L814.34-30.66Q813.25-30.66 812.32-30.24L812.32-30.24L812.32-30.24Q811.39-29.82 810.43-28.42L810.43-28.42L810.43-28.42Q808.06-25.22 806.72-17.79ZM873.98 1.28L873.98 1.28L873.98 1.28Q866.24 1.28 866.24-4.74L866.24-4.74L866.24-4.74Q866.24-7.36 867.36-12.45L867.36-12.45L867.36-12.45Q868.48-17.54 868.86-19.58L868.86-19.58L868.86-19.58Q869.76-24.26 869.76-25.73L869.76-25.73L869.76-25.73Q869.76-28.99 867.33-28.99L867.33-28.99L867.33-28.99Q865.73-28.99 864.19-26.78L864.19-26.78L864.19-26.78Q862.66-24.58 861.95-20.16L861.95-20.16L857.98 0L845.50 1.28L848.96-16.13L848.96-16.13Q849.54-19.01 850.05-22.27L850.05-22.27L850.05-22.27Q850.56-25.54 850.56-26.05L850.56-26.05L850.56-26.05Q850.56-28.99 848.38-28.99L848.38-28.99L848.38-28.99Q846.91-28.99 845.31-26.82L845.31-26.82L845.31-26.82Q843.71-24.64 842.82-20.16L842.82-20.16L838.91 0L826.30 1.28L833.02-32.64L843.46-33.92L842.37-27.46L842.37-27.46Q844.03-30.91 847.10-32.42L847.10-32.42L847.10-32.42Q850.18-33.92 854.98-33.92L854.98-33.92L854.98-33.92Q857.73-33.92 859.52-32.58L859.52-32.58L859.52-32.58Q861.31-31.23 861.89-29.06L861.89-29.06L861.89-29.06Q862.98-31.30 865.76-32.61L865.76-32.61L865.76-32.61Q868.54-33.92 871.97-33.92L871.97-33.92L871.97-33.92Q875.39-33.92 877.09-33.18L877.09-33.18L877.09-33.18Q878.78-32.45 879.81-31.23L879.81-31.23L879.81-31.23Q881.54-28.99 881.54-24.90L881.54-24.90L881.54-24.90Q881.54-20.86 879.81-12.48L879.81-12.48L879.81-12.48Q878.91-8.38 878.91-6.88L878.91-6.88L878.91-6.88Q878.91-5.38 879.78-4.48L879.78-4.48L879.78-4.48Q880.64-3.58 881.92-3.46L881.92-3.46L881.92-3.46Q881.28-1.28 879.07 0L879.07 0L879.07 0Q876.86 1.28 873.98 1.28ZM902.21-3.52L902.21-3.52L902.21-3.52Q900.22 1.28 893.89 1.28L893.89 1.28L893.89 1.28Q890.62 1.28 888.58-0.96L888.58-0.96L888.58-0.96Q886.85-2.94 886.85-4.93L886.85-4.93L886.85-4.93Q886.85-10.11 889.22-20.22L889.22-20.22L891.58-32.64L904.58-33.92L900.67-13.70L900.67-13.70Q899.58-8.96 899.58-7.30L899.58-7.30L899.58-7.30Q899.58-3.65 902.21-3.52ZM892.74-41.54L892.74-41.54L892.74-41.54Q892.74-44.03 894.82-45.38L894.82-45.38L894.82-45.38Q896.90-46.72 899.90-46.72L899.90-46.72L899.90-46.72Q902.91-46.72 904.74-45.38L904.74-45.38L904.74-45.38Q906.56-44.03 906.56-41.54L906.56-41.54L906.56-41.54Q906.56-39.04 904.54-37.76L904.54-37.76L904.54-37.76Q902.53-36.48 899.52-36.48L899.52-36.48L899.52-36.48Q896.51-36.48 894.62-37.76L894.62-37.76L894.62-37.76Q892.74-39.04 892.74-41.54ZM908.67-6.40L908.67-6.40L908.67-6.40Q908.67-8.13 909.57-12.48L909.57-12.48L912.96-29.76L909.18-29.76L909.44-31.68L909.44-31.68Q917.12-33.98 924.54-39.62L924.54-39.62L927.62-39.62L926.08-32.64L931.07-32.64L930.50-29.76L925.57-29.76L922.30-12.48L922.30-12.48Q921.47-8.51 921.47-7.17L921.47-7.17L921.47-7.17Q921.47-4.10 924.16-3.46L924.16-3.46L924.16-3.46Q923.52-1.28 921.22 0L921.22 0L921.22 0Q918.91 1.28 915.65 1.28L915.65 1.28L915.65 1.28Q912.38 1.28 910.53-0.77L910.53-0.77L910.53-0.77Q908.67-2.82 908.67-6.40Z" fill="#ffd8b4"></path></g></g><style>text {
  font-size: 64px;
  font-family: Arial Black;
  dominant-baseline: central;
  text-anchor: middle;
}</style></svg>