<svg width="1801.795947265625px" height="163.04000549316405px" xmlns="http://www.w3.org/2000/svg" viewBox="-650.8979736328125 -6.520002746582023 1801.795947265625 163.04000549316405" style="background: none;" preserveAspectRatio="xMidYMid"><defs><filter id="editing-hover" x="-100%" y="-100%" width="300%" height="300%"><feFlood flood-color="rgba(100%,100%,100%,0)" result="flood"></feFlood><feComposite operator="in" in2="SourceAlpha" in="flood" result="shadow"></feComposite><feOffset dx="-4" dy="-4" in="SourceGraphic" result="offset-1"></feOffset><feOffset dx="4" dy="4" in="shadow" result="offset-2"></feOffset><feMerge><feMergeNode in="offset-2"></feMergeNode><feMergeNode in="offset-1"></feMergeNode></feMerge></filter></defs><g filter="url(#editing-hover)"><g transform="translate(-403.5776928663254, 116.89500045776367)"><path d="M36.72-60.03L36.72-60.03L36.72-60.03Q58.77-60.03 58.77-44.46L58.77-44.46L58.77-44.46Q58.77-35.91 53.28-30.78L53.28-30.78L53.28-30.78Q47.88-25.65 38.43-25.65L38.43-25.65L38.43-25.65Q34.02-25.65 30.60-28.17L30.60-28.17L30.60-28.17Q28.98-29.25 27.90-30.69L27.90-30.69L27.90-30.69Q34.47-30.69 37.93-34.70L37.93-34.70L37.93-34.70Q41.40-38.70 41.40-46.53L41.40-46.53L41.40-46.53Q41.40-54.36 33.66-54.36L33.66-54.36L31.50-54.36L31.50-54.36Q30.96-54.36 30.51-54.27L30.51-54.27L20.16 0L0.63 0L11.70-58.95L11.70-58.95Q21.33-59.85 26.91-59.94L26.91-59.94L26.91-59.94Q32.49-60.03 36.72-60.03ZM63.13-2.70L63.13-2.70L63.13-2.70Q61.02-5.04 60.07-8.73L60.07-8.73L60.07-8.73Q59.13-12.42 59.13-18.45L59.13-18.45L59.13-18.45Q59.13-24.48 61.20-29.97L61.20-29.97L61.20-29.97Q63.27-35.46 67.05-39.42L67.05-39.42L67.05-39.42Q74.79-47.70 87.57-47.70L87.57-47.70L87.57-47.70Q92.16-47.70 95.49-46.17L95.49-46.17L110.88-47.70L104.22-12.60L104.22-12.60Q103.95-11.52 103.95-9.54L103.95-9.54L103.95-9.54Q103.95-7.56 105.16-6.30L105.16-6.30L105.16-6.30Q106.38-5.04 108.18-4.86L108.18-4.86L108.18-4.86Q107.28-1.80 104.00 0L104.00 0L104.00 0Q100.71 1.80 97.02 1.80L97.02 1.80L97.02 1.80Q93.33 1.80 90.85 0.40L90.85 0.40L90.85 0.40Q88.38-0.99 87.66-3.33L87.66-3.33L87.66-3.33Q86.22-1.08 83.16 0.36L83.16 0.36L83.16 0.36Q80.10 1.80 76.00 1.80L76.00 1.80L76.00 1.80Q71.91 1.80 68.58 0.72L68.58 0.72L68.58 0.72Q65.25-0.36 63.13-2.70ZM82.13-39.24L82.13-39.24L82.13-39.24Q81.09-37.62 80.19-34.88L80.19-34.88L80.19-34.88Q79.29-32.13 77.80-24.79L77.80-24.79L77.80-24.79Q76.32-17.46 76.32-12.24L76.32-12.24L76.32-12.24Q76.32-7.02 77.13-5.49L77.13-5.49L77.13-5.49Q77.94-3.96 79.38-3.96L79.38-3.96L79.38-3.96Q82.26-3.96 84.38-6.71L84.38-6.71L84.38-6.71Q86.49-9.45 87.30-14.31L87.30-14.31L92.07-40.68L92.07-40.68Q90.18-42.30 87.97-42.30L87.97-42.30L87.97-42.30Q85.77-42.30 84.47-41.58L84.47-41.58L84.47-41.58Q83.16-40.86 82.13-39.24ZM117.18-9L117.18-9L117.18-9Q117.18-11.43 118.44-17.55L118.44-17.55L123.21-41.85L117.90-41.85L118.26-44.55L118.26-44.55Q129.06-47.79 139.50-55.71L139.50-55.71L143.82-55.71L141.66-45.90L148.68-45.90L147.87-41.85L140.94-41.85L136.35-17.55L136.35-17.55Q135.18-11.97 135.18-10.08L135.18-10.08L135.18-10.08Q135.18-5.76 138.96-4.86L138.96-4.86L138.96-4.86Q138.06-1.80 134.82 0L134.82 0L134.82 0Q131.58 1.80 126.99 1.80L126.99 1.80L126.99 1.80Q122.40 1.80 119.79-1.08L119.79-1.08L119.79-1.08Q117.18-3.96 117.18-9ZM184.32-15.21L184.32-15.21L184.32-15.21Q186.57-13.68 186.57-10.30L186.57-10.30L186.57-10.30Q186.57-6.93 184.86-4.77L184.86-4.77L184.86-4.77Q183.15-2.61 180.36-1.17L180.36-1.17L180.36-1.17Q174.60 1.80 168.39 1.80L168.39 1.80L168.39 1.80Q162.18 1.80 158.53 0.45L158.53 0.45L158.53 0.45Q154.89-0.90 152.46-3.42L152.46-3.42L152.46-3.42Q147.69-8.19 147.69-16.92L147.69-16.92L147.69-16.92Q147.69-30.51 155.07-38.79L155.07-38.79L155.07-38.79Q162.99-47.70 176.76-47.70L176.76-47.70L176.76-47.70Q185.31-47.70 189.54-44.10L189.54-44.10L189.54-44.10Q192.69-41.40 192.69-36.99L192.69-36.99L192.69-36.99Q192.69-21.15 165.33-21.15L165.33-21.15L165.33-21.15Q164.97-18.81 164.97-16.83L164.97-16.83L164.97-16.83Q164.97-12.69 166.81-11.12L166.81-11.12L166.81-11.12Q168.66-9.54 172.08-9.54L172.08-9.54L172.08-9.54Q175.50-9.54 179.14-11.12L179.14-11.12L179.14-11.12Q182.79-12.69 184.32-15.21ZM165.96-25.02L165.96-25.02L165.96-25.02Q172.35-25.02 176.04-28.98L176.04-28.98L176.04-28.98Q179.73-32.76 179.73-38.79L179.73-38.79L179.73-38.79Q179.73-40.86 178.96-41.98L178.96-41.98L178.96-41.98Q178.20-43.11 176.67-43.11L176.67-43.11L176.67-43.11Q175.14-43.11 173.83-42.52L173.83-42.52L173.83-42.52Q172.53-41.94 171.18-39.96L171.18-39.96L171.18-39.96Q167.85-35.46 165.96-25.02ZM233.82 1.80L233.82 1.80L233.82 1.80Q222.93 1.80 222.93-6.66L222.93-6.66L222.93-6.66Q223.02-9 223.74-12.96L223.74-12.96L225.36-21.24L225.36-21.24Q227.79-32.94 227.79-35.55L227.79-35.55L227.79-35.55Q227.79-40.77 224.73-40.77L224.73-40.77L224.73-40.77Q219.60-40.77 216.90-27.36L216.90-27.36L211.59 0L193.50 1.80L202.86-45.99L217.62-47.70L216.18-38.88L216.18-38.88Q220.41-47.70 233.37-47.70L233.37-47.70L233.37-47.70Q239.67-47.70 242.32-45.05L242.32-45.05L242.32-45.05Q244.98-42.39 244.98-36.45L244.98-36.45L244.98-36.45Q244.98-30.87 242.10-17.82L242.10-17.82L242.10-17.82Q240.75-11.97 240.75-9.76L240.75-9.76L240.75-9.76Q240.75-7.56 241.96-6.30L241.96-6.30L241.96-6.30Q243.18-5.04 244.98-4.86L244.98-4.86L244.98-4.86Q244.08-1.80 240.97 0L240.97 0L240.97 0Q237.87 1.80 233.82 1.80ZM258.21 10.71L258.21 10.71L258.21 10.71Q262.89 10.35 266.31 4.50L266.31 4.50L266.31 4.50Q268.92 0 270.63-8.28L270.63-8.28L277.92-45.90L296.01-47.70L288.36-8.28L288.36-8.28Q285.39 6.75 280.80 11.70L280.80 11.70L280.80 11.70Q278.37 14.40 275.22 15.30L275.22 15.30L275.22 15.30Q272.07 16.20 268.47 16.20L268.47 16.20L268.47 16.20Q260.91 16.20 258.21 10.71ZM279.36-58.41L279.36-58.41L279.36-58.41Q279.36-61.92 282.28-63.81L282.28-63.81L282.28-63.81Q285.21-65.70 289.44-65.70L289.44-65.70L289.44-65.70Q293.67-65.70 296.24-63.81L296.24-63.81L296.24-63.81Q298.80-61.92 298.80-58.41L298.80-58.41L298.80-58.41Q298.80-54.90 295.96-53.10L295.96-53.10L295.96-53.10Q293.13-51.30 288.90-51.30L288.90-51.30L288.90-51.30Q284.67-51.30 282.01-53.10L282.01-53.10L282.01-53.10Q279.36-54.90 279.36-58.41ZM303.16-2.70L303.16-2.70L303.16-2.70Q301.05-5.04 300.10-8.73L300.10-8.73L300.10-8.73Q299.16-12.42 299.16-18.45L299.16-18.45L299.16-18.45Q299.16-24.48 301.23-29.97L301.23-29.97L301.23-29.97Q303.30-35.46 307.08-39.42L307.08-39.42L307.08-39.42Q314.82-47.70 327.60-47.70L327.60-47.70L327.60-47.70Q332.19-47.70 335.52-46.17L335.52-46.17L350.91-47.70L344.25-12.60L344.25-12.60Q343.98-11.52 343.98-9.54L343.98-9.54L343.98-9.54Q343.98-7.56 345.19-6.30L345.19-6.30L345.19-6.30Q346.41-5.04 348.21-4.86L348.21-4.86L348.21-4.86Q347.31-1.80 344.02 0L344.02 0L344.02 0Q340.74 1.80 337.05 1.80L337.05 1.80L337.05 1.80Q333.36 1.80 330.88 0.40L330.88 0.40L330.88 0.40Q328.41-0.99 327.69-3.33L327.69-3.33L327.69-3.33Q326.25-1.08 323.19 0.36L323.19 0.36L323.19 0.36Q320.13 1.80 316.03 1.80L316.03 1.80L316.03 1.80Q311.94 1.80 308.61 0.72L308.61 0.72L308.61 0.72Q305.28-0.36 303.16-2.70ZM322.15-39.24L322.15-39.24L322.15-39.24Q321.12-37.62 320.22-34.88L320.22-34.88L320.22-34.88Q319.32-32.13 317.83-24.79L317.83-24.79L317.83-24.79Q316.35-17.46 316.35-12.24L316.35-12.24L316.35-12.24Q316.35-7.02 317.16-5.49L317.16-5.49L317.16-5.49Q317.97-3.96 319.41-3.96L319.41-3.96L319.41-3.96Q322.29-3.96 324.40-6.71L324.40-6.71L324.40-6.71Q326.52-9.45 327.33-14.31L327.33-14.31L332.10-40.68L332.10-40.68Q330.21-42.30 328.00-42.30L328.00-42.30L328.00-42.30Q325.80-42.30 324.49-41.58L324.49-41.58L324.49-41.58Q323.19-40.86 322.15-39.24ZM362.97 12.42L362.97 12.42L362.97 12.42Q367.56 11.88 370.44 5.94L370.44 5.94L370.44 5.94Q373.41-0.09 376.11-13.95L376.11-13.95L384.84-59.40L404.37-59.40L395.64-13.95L395.64-13.95Q392.31 3.69 386.82 10.62L386.82 10.62L386.82 10.62Q383.94 14.22 380.29 15.66L380.29 15.66L380.29 15.66Q376.65 17.10 372.69 17.10L372.69 17.10L372.69 17.10Q368.73 17.10 366.16 15.66L366.16 15.66L366.16 15.66Q363.60 14.22 362.97 12.42ZM442.80-15.21L442.80-15.21L442.80-15.21Q445.05-13.68 445.05-10.30L445.05-10.30L445.05-10.30Q445.05-6.93 443.34-4.77L443.34-4.77L443.34-4.77Q441.63-2.61 438.84-1.17L438.84-1.17L438.84-1.17Q433.08 1.80 426.87 1.80L426.87 1.80L426.87 1.80Q420.66 1.80 417.01 0.45L417.01 0.45L417.01 0.45Q413.37-0.90 410.94-3.42L410.94-3.42L410.94-3.42Q406.17-8.19 406.17-16.92L406.17-16.92L406.17-16.92Q406.17-30.51 413.55-38.79L413.55-38.79L413.55-38.79Q421.47-47.70 435.24-47.70L435.24-47.70L435.24-47.70Q443.79-47.70 448.02-44.10L448.02-44.10L448.02-44.10Q451.17-41.40 451.17-36.99L451.17-36.99L451.17-36.99Q451.17-21.15 423.81-21.15L423.81-21.15L423.81-21.15Q423.45-18.81 423.45-16.83L423.45-16.83L423.45-16.83Q423.45-12.69 425.30-11.12L425.30-11.12L425.30-11.12Q427.14-9.54 430.56-9.54L430.56-9.54L430.56-9.54Q433.98-9.54 437.63-11.12L437.63-11.12L437.63-11.12Q441.27-12.69 442.80-15.21ZM424.44-25.02L424.44-25.02L424.44-25.02Q430.83-25.02 434.52-28.98L434.52-28.98L434.52-28.98Q438.21-32.76 438.21-38.79L438.21-38.79L438.21-38.79Q438.21-40.86 437.44-41.98L437.44-41.98L437.44-41.98Q436.68-43.11 435.15-43.11L435.15-43.11L435.15-43.11Q433.62-43.11 432.31-42.52L432.31-42.52L432.31-42.52Q431.01-41.94 429.66-39.96L429.66-39.96L429.66-39.96Q426.33-35.46 424.44-25.02ZM481.14-31.59L481.14-31.59L481.14-31.59Q482.40-34.92 482.40-37.80L482.40-37.80L482.40-37.80Q482.40-43.11 478.08-43.11L478.08-43.11L478.08-43.11Q475.83-43.11 473.99-41.09L473.99-41.09L473.99-41.09Q472.14-39.06 472.14-36.54L472.14-36.54L472.14-36.54Q472.14-34.74 473.58-33.30L473.58-33.30L473.58-33.30Q475.65-31.32 480.96-28.08L480.96-28.08L480.96-28.08Q486.27-24.84 488.29-22.18L488.29-22.18L488.29-22.18Q490.32-19.53 490.32-15.88L490.32-15.88L490.32-15.88Q490.32-12.24 488.56-8.91L488.56-8.91L488.56-8.91Q486.81-5.58 483.66-3.24L483.66-3.24L483.66-3.24Q476.91 1.80 466.11 1.80L466.11 1.80L466.11 1.80Q460.26 1.80 455.76-1.26L455.76-1.26L455.76-1.26Q451.26-4.23 451.26-7.74L451.26-7.74L451.26-7.74Q451.26-11.25 453.82-13.32L453.82-13.32L453.82-13.32Q456.39-15.39 460.17-15.39L460.17-15.39L460.17-15.39Q463.95-15.39 466.29-13.95L466.29-13.95L466.29-13.95Q465.12-10.98 465.12-9L465.12-9L465.12-9Q465.12-3.06 470.16-3.06L470.16-3.06L470.16-3.06Q472.32-3.06 473.76-4.41L473.76-4.41L473.76-4.41Q475.20-5.76 475.20-8.10L475.20-8.10L475.20-8.10Q475.20-12.69 467.46-17.55L467.46-17.55L467.46-17.55Q461.16-21.69 459.72-23.31L459.72-23.31L459.72-23.31Q457.29-26.19 457.29-29.79L457.29-29.79L457.29-29.79Q457.29-33.39 459-36.81L459-36.81L459-36.81Q460.71-40.23 463.86-42.66L463.86-42.66L463.86-42.66Q470.43-47.70 481.86-47.70L481.86-47.70L481.86-47.70Q487.71-47.70 491.18-45.36L491.18-45.36L491.18-45.36Q494.64-43.02 494.64-39.06L494.64-39.06L494.64-39.06Q494.64-35.10 492.25-32.85L492.25-32.85L492.25-32.85Q489.87-30.60 485.55-30.60L485.55-30.60L485.55-30.60Q482.58-30.60 481.14-31.59ZM524.88-31.59L524.88-31.59L524.88-31.59Q526.14-34.92 526.14-37.80L526.14-37.80L526.14-37.80Q526.14-43.11 521.82-43.11L521.82-43.11L521.82-43.11Q519.57-43.11 517.73-41.09L517.73-41.09L517.73-41.09Q515.88-39.06 515.88-36.54L515.88-36.54L515.88-36.54Q515.88-34.74 517.32-33.30L517.32-33.30L517.32-33.30Q519.39-31.32 524.70-28.08L524.70-28.08L524.70-28.08Q530.01-24.84 532.03-22.18L532.03-22.18L532.03-22.18Q534.06-19.53 534.06-15.88L534.06-15.88L534.06-15.88Q534.06-12.24 532.30-8.91L532.30-8.91L532.30-8.91Q530.55-5.58 527.40-3.24L527.40-3.24L527.40-3.24Q520.65 1.80 509.85 1.80L509.85 1.80L509.85 1.80Q504 1.80 499.50-1.26L499.50-1.26L499.50-1.26Q495-4.23 495-7.74L495-7.74L495-7.74Q495-11.25 497.56-13.32L497.56-13.32L497.56-13.32Q500.13-15.39 503.91-15.39L503.91-15.39L503.91-15.39Q507.69-15.39 510.03-13.95L510.03-13.95L510.03-13.95Q508.86-10.98 508.86-9L508.86-9L508.86-9Q508.86-3.06 513.90-3.06L513.90-3.06L513.90-3.06Q516.06-3.06 517.50-4.41L517.50-4.41L517.50-4.41Q518.94-5.76 518.94-8.10L518.94-8.10L518.94-8.10Q518.94-12.69 511.20-17.55L511.20-17.55L511.20-17.55Q504.90-21.69 503.46-23.31L503.46-23.31L503.46-23.31Q501.03-26.19 501.03-29.79L501.03-29.79L501.03-29.79Q501.03-33.39 502.74-36.81L502.74-36.81L502.74-36.81Q504.45-40.23 507.60-42.66L507.60-42.66L507.60-42.66Q514.17-47.70 525.60-47.70L525.60-47.70L525.60-47.70Q531.45-47.70 534.91-45.36L534.91-45.36L534.91-45.36Q538.38-43.02 538.38-39.06L538.38-39.06L538.38-39.06Q538.38-35.10 536.00-32.85L536.00-32.85L536.00-32.85Q533.61-30.60 529.29-30.60L529.29-30.60L529.29-30.60Q526.32-30.60 524.88-31.59ZM578.16-15.21L578.16-15.21L578.16-15.21Q580.41-13.68 580.41-10.30L580.41-10.30L580.41-10.30Q580.41-6.93 578.70-4.77L578.70-4.77L578.70-4.77Q576.99-2.61 574.20-1.17L574.20-1.17L574.20-1.17Q568.44 1.80 562.23 1.80L562.23 1.80L562.23 1.80Q556.02 1.80 552.38 0.45L552.38 0.45L552.38 0.45Q548.73-0.90 546.30-3.42L546.30-3.42L546.30-3.42Q541.53-8.19 541.53-16.92L541.53-16.92L541.53-16.92Q541.53-30.51 548.91-38.79L548.91-38.79L548.91-38.79Q556.83-47.70 570.60-47.70L570.60-47.70L570.60-47.70Q579.15-47.70 583.38-44.10L583.38-44.10L583.38-44.10Q586.53-41.40 586.53-36.99L586.53-36.99L586.53-36.99Q586.53-21.15 559.17-21.15L559.17-21.15L559.17-21.15Q558.81-18.81 558.81-16.83L558.81-16.83L558.81-16.83Q558.81-12.69 560.65-11.12L560.65-11.12L560.65-11.12Q562.50-9.54 565.92-9.54L565.92-9.54L565.92-9.54Q569.34-9.54 572.98-11.12L572.98-11.12L572.98-11.12Q576.63-12.69 578.16-15.21ZM559.80-25.02L559.80-25.02L559.80-25.02Q566.19-25.02 569.88-28.98L569.88-28.98L569.88-28.98Q573.57-32.76 573.57-38.79L573.57-38.79L573.57-38.79Q573.57-40.86 572.80-41.98L572.80-41.98L572.80-41.98Q572.04-43.11 570.51-43.11L570.51-43.11L570.51-43.11Q568.98-43.11 567.67-42.52L567.67-42.52L567.67-42.52Q566.37-41.94 565.02-39.96L565.02-39.96L565.02-39.96Q561.69-35.46 559.80-25.02ZM627.66 1.80L627.66 1.80L627.66 1.80Q616.77 1.80 616.77-6.66L616.77-6.66L616.77-6.66Q616.86-9 617.58-12.96L617.58-12.96L619.20-21.24L619.20-21.24Q621.63-32.94 621.63-35.55L621.63-35.55L621.63-35.55Q621.63-40.77 618.57-40.77L618.57-40.77L618.57-40.77Q613.44-40.77 610.74-27.36L610.74-27.36L605.43 0L587.34 1.80L596.70-45.99L611.46-47.70L610.02-38.88L610.02-38.88Q614.25-47.70 627.21-47.70L627.21-47.70L627.21-47.70Q633.51-47.70 636.16-45.05L636.16-45.05L636.16-45.05Q638.82-42.39 638.82-36.45L638.82-36.45L638.82-36.45Q638.82-30.87 635.94-17.82L635.94-17.82L635.94-17.82Q634.59-11.97 634.59-9.76L634.59-9.76L634.59-9.76Q634.59-7.56 635.80-6.30L635.80-6.30L635.80-6.30Q637.02-5.04 638.82-4.86L638.82-4.86L638.82-4.86Q637.92-1.80 634.81 0L634.81 0L634.81 0Q631.71 1.80 627.66 1.80ZM687.78-42.66L687.78-42.66L687.78-42.66Q692.64-47.70 702.90-47.70L702.90-47.70L702.90-47.70Q708.57-47.70 711.67-44.68L711.67-44.68L711.67-44.68Q714.78-41.67 714.78-36.13L714.78-36.13L714.78-36.13Q714.78-30.60 711.67-26.68L711.67-26.68L711.67-26.68Q708.57-22.77 702.81-21.15L702.81-21.15L702.81-21.15Q703.26-19.35 703.89-17.46L703.89-17.46L705.15-13.86L705.15-13.86Q706.86-9.27 708.21-7.65L708.21-7.65L708.21-7.65Q709.56-6.03 711.36-5.49L711.36-5.49L711.36-5.49Q710.37-1.80 706.77 0.18L706.77 0.18L706.77 0.18Q703.89 1.80 699.93 1.80L699.93 1.80L699.93 1.80Q688.32 1.80 686.79-16.11L686.79-16.11L686.79-16.11Q686.52-18.63 686.52-21.15L686.52-21.15L686.52-21.15Q691.02-22.41 694.17-26.64L694.17-26.64L694.17-26.64Q697.32-30.87 697.32-35.82L697.32-35.82L697.32-35.82Q697.32-40.77 693.81-40.77L693.81-40.77L693.81-40.77Q691.29-40.77 689.31-37.98L689.31-37.98L689.31-37.98Q687.33-35.19 686.43-30.42L686.43-30.42L680.49 0L662.31 1.80L674.91-63L693.00-64.80L690.93-54.09L690.93-54.09Q689.58-46.53 687.78-42.66ZM722.83-2.70L722.83-2.70L722.83-2.70Q720.72-5.04 719.77-8.73L719.77-8.73L719.77-8.73Q718.83-12.42 718.83-18.45L718.83-18.45L718.83-18.45Q718.83-24.48 720.90-29.97L720.90-29.97L720.90-29.97Q722.97-35.46 726.75-39.42L726.75-39.42L726.75-39.42Q734.49-47.70 747.27-47.70L747.27-47.70L747.27-47.70Q751.86-47.70 755.19-46.17L755.19-46.17L770.58-47.70L763.92-12.60L763.92-12.60Q763.65-11.52 763.65-9.54L763.65-9.54L763.65-9.54Q763.65-7.56 764.86-6.30L764.86-6.30L764.86-6.30Q766.08-5.04 767.88-4.86L767.88-4.86L767.88-4.86Q766.98-1.80 763.69 0L763.69 0L763.69 0Q760.41 1.80 756.72 1.80L756.72 1.80L756.72 1.80Q753.03 1.80 750.55 0.40L750.55 0.40L750.55 0.40Q748.08-0.99 747.36-3.33L747.36-3.33L747.36-3.33Q745.92-1.08 742.86 0.36L742.86 0.36L742.86 0.36Q739.80 1.80 735.70 1.80L735.70 1.80L735.70 1.80Q731.61 1.80 728.28 0.72L728.28 0.72L728.28 0.72Q724.95-0.36 722.83-2.70ZM741.82-39.24L741.82-39.24L741.82-39.24Q740.79-37.62 739.89-34.88L739.89-34.88L739.89-34.88Q738.99-32.13 737.50-24.79L737.50-24.79L737.50-24.79Q736.02-17.46 736.02-12.24L736.02-12.24L736.02-12.24Q736.02-7.02 736.83-5.49L736.83-5.49L736.83-5.49Q737.64-3.96 739.08-3.96L739.08-3.96L739.08-3.96Q741.96-3.96 744.07-6.71L744.07-6.71L744.07-6.71Q746.19-9.45 747.00-14.31L747.00-14.31L751.77-40.68L751.77-40.68Q749.88-42.30 747.67-42.30L747.67-42.30L747.67-42.30Q745.47-42.30 744.16-41.58L744.16-41.58L744.16-41.58Q742.86-40.86 741.82-39.24ZM776.88-9L776.88-9L776.88-9Q776.88-11.43 778.14-17.55L778.14-17.55L782.91-41.85L777.60-41.85L777.96-44.55L777.96-44.55Q788.76-47.79 799.20-55.71L799.20-55.71L803.52-55.71L801.36-45.90L808.38-45.90L807.57-41.85L800.64-41.85L796.05-17.55L796.05-17.55Q794.88-11.97 794.88-10.08L794.88-10.08L794.88-10.08Q794.88-5.76 798.66-4.86L798.66-4.86L798.66-4.86Q797.76-1.80 794.52 0L794.52 0L794.52 0Q791.28 1.80 786.69 1.80L786.69 1.80L786.69 1.80Q782.10 1.80 779.49-1.08L779.49-1.08L779.49-1.08Q776.88-3.96 776.88-9ZM809.37-9L809.37-9L809.37-9Q809.37-11.43 810.63-17.55L810.63-17.55L815.40-41.85L810.09-41.85L810.45-44.55L810.45-44.55Q821.25-47.79 831.69-55.71L831.69-55.71L836.01-55.71L833.85-45.90L840.87-45.90L840.06-41.85L833.13-41.85L828.54-17.55L828.54-17.55Q827.37-11.97 827.37-10.08L827.37-10.08L827.37-10.08Q827.37-5.76 831.15-4.86L831.15-4.86L831.15-4.86Q830.25-1.80 827.01 0L827.01 0L827.01 0Q823.77 1.80 819.18 1.80L819.18 1.80L819.18 1.80Q814.59 1.80 811.98-1.08L811.98-1.08L811.98-1.08Q809.37-3.96 809.37-9ZM859.68 1.80L859.68 1.80L859.68 1.80Q839.88 1.80 839.88-16.83L839.88-16.83L839.88-16.83Q839.88-30.06 847.17-38.61L847.17-38.61L847.17-38.61Q854.91-47.70 868.32-47.70L868.32-47.70L868.32-47.70Q878.04-47.70 882.99-43.20L882.99-43.20L882.99-43.20Q887.94-38.70 887.94-29.25L887.94-29.25L887.94-29.25Q887.94-14.85 880.20-6.48L880.20-6.48L880.20-6.48Q872.64 1.80 859.68 1.80ZM862.02-37.35L862.02-37.35L862.02-37.35Q860.94-34.92 860.08-31.27L860.08-31.27L860.08-31.27Q859.23-27.63 858.15-21.87L858.15-21.87L858.15-21.87Q857.07-16.11 857.07-9L857.07-9L857.07-9Q857.07-6.66 857.83-5.13L857.83-5.13L857.83-5.13Q858.60-3.60 860.67-3.60L860.67-3.60L860.67-3.60Q862.74-3.60 864.04-4.59L864.04-4.59L864.04-4.59Q865.35-5.58 866.34-7.92L866.34-7.92L866.34-7.92Q868.14-12.06 869.58-19.75L869.58-19.75L869.58-19.75Q871.02-27.45 871.15-30.78L871.15-30.78L871.15-30.78Q871.29-34.11 871.29-36.59L871.29-36.59L871.29-36.59Q871.29-39.06 870.57-40.68L870.57-40.68L870.57-40.68Q869.85-42.30 867.82-42.30L867.82-42.30L867.82-42.30Q865.80-42.30 864.45-41.04L864.45-41.04L864.45-41.04Q863.10-39.78 862.02-37.35ZM920.16-31.59L920.16-31.59L920.16-31.59Q921.42-34.92 921.42-37.80L921.42-37.80L921.42-37.80Q921.42-43.11 917.10-43.11L917.10-43.11L917.10-43.11Q914.85-43.11 913.00-41.09L913.00-41.09L913.00-41.09Q911.16-39.06 911.16-36.54L911.16-36.54L911.16-36.54Q911.16-34.74 912.60-33.30L912.60-33.30L912.60-33.30Q914.67-31.32 919.98-28.08L919.98-28.08L919.98-28.08Q925.29-24.84 927.31-22.18L927.31-22.18L927.31-22.18Q929.34-19.53 929.34-15.88L929.34-15.88L929.34-15.88Q929.34-12.24 927.58-8.91L927.58-8.91L927.58-8.91Q925.83-5.58 922.68-3.24L922.68-3.24L922.68-3.24Q915.93 1.80 905.13 1.80L905.13 1.80L905.13 1.80Q899.28 1.80 894.78-1.26L894.78-1.26L894.78-1.26Q890.28-4.23 890.28-7.74L890.28-7.74L890.28-7.74Q890.28-11.25 892.84-13.32L892.84-13.32L892.84-13.32Q895.41-15.39 899.19-15.39L899.19-15.39L899.19-15.39Q902.97-15.39 905.31-13.95L905.31-13.95L905.31-13.95Q904.14-10.98 904.14-9L904.14-9L904.14-9Q904.14-3.06 909.18-3.06L909.18-3.06L909.18-3.06Q911.34-3.06 912.78-4.41L912.78-4.41L912.78-4.41Q914.22-5.76 914.22-8.10L914.22-8.10L914.22-8.10Q914.22-12.69 906.48-17.55L906.48-17.55L906.48-17.55Q900.18-21.69 898.74-23.31L898.74-23.31L898.74-23.31Q896.31-26.19 896.31-29.79L896.31-29.79L896.31-29.79Q896.31-33.39 898.02-36.81L898.02-36.81L898.02-36.81Q899.73-40.23 902.88-42.66L902.88-42.66L902.88-42.66Q909.45-47.70 920.88-47.70L920.88-47.70L920.88-47.70Q926.73-47.70 930.19-45.36L930.19-45.36L930.19-45.36Q933.66-43.02 933.66-39.06L933.66-39.06L933.66-39.06Q933.66-35.10 931.27-32.85L931.27-32.85L931.27-32.85Q928.89-30.60 924.57-30.60L924.57-30.60L924.57-30.60Q921.60-30.60 920.16-31.59ZM965.61-10.17L965.61-10.17L965.61-10.17Q960.93-5.31 952.38-5.31L952.38-5.31L952.38-5.31Q941.67-5.31 939.42-13.14L939.42-13.14L939.42-13.14Q938.70-15.48 938.70-18.09L938.70-18.09L938.70-18.09Q938.70-20.70 939.24-23.40L939.24-23.40L943.47-45.90L961.74-47.70L956.79-21.51L956.79-21.51Q956.61-20.34 956.34-19.08L956.34-19.08L956.34-19.08Q956.07-17.82 956.07-16.52L956.07-16.52L956.07-16.52Q956.07-15.21 956.52-14.35L956.52-14.35L956.52-14.35Q956.97-13.50 957.60-12.96L957.60-12.96L957.60-12.96Q958.68-12.24 960.61-12.24L960.61-12.24L960.61-12.24Q962.55-12.24 964.21-14.58L964.21-14.58L964.21-14.58Q965.88-16.92 966.69-20.97L966.69-20.97L971.64-45.90L989.37-47.70L982.62-12.33L982.62-12.33Q979.29 4.95 972.45 11.79L972.45 11.79L972.45 11.79Q968.94 15.30 964.39 16.70L964.39 16.70L964.39 16.70Q959.85 18.09 954.00 18.09L954.00 18.09L954.00 18.09Q944.55 18.09 939.15 15.12L939.15 15.12L939.15 15.12Q933.75 12.15 933.75 7.20L933.75 7.20L933.75 7.20Q933.75 3.51 936.54 1.40L936.54 1.40L936.54 1.40Q939.33-0.72 943.65-0.72L943.65-0.72L943.65-0.72Q947.43-0.72 950.31 0.90L950.31 0.90L950.31 0.90Q952.02 1.89 952.83 3.15L952.83 3.15L952.83 3.15Q950.76 4.95 950.76 7.92L950.76 7.92L950.76 7.92Q950.76 11.88 954.36 11.88L954.36 11.88L954.36 11.88Q960.30 11.88 963.72-1.80L963.72-1.80L963.72-1.80Q964.71-5.85 965.61-10.17ZM1019.52-31.59L1019.52-31.59L1019.52-31.59Q1020.78-34.92 1020.78-37.80L1020.78-37.80L1020.78-37.80Q1020.78-43.11 1016.46-43.11L1016.46-43.11L1016.46-43.11Q1014.21-43.11 1012.36-41.09L1012.36-41.09L1012.36-41.09Q1010.52-39.06 1010.52-36.54L1010.52-36.54L1010.52-36.54Q1010.52-34.74 1011.96-33.30L1011.96-33.30L1011.96-33.30Q1014.03-31.32 1019.34-28.08L1019.34-28.08L1019.34-28.08Q1024.65-24.84 1026.67-22.18L1026.67-22.18L1026.67-22.18Q1028.70-19.53 1028.70-15.88L1028.70-15.88L1028.70-15.88Q1028.70-12.24 1026.94-8.91L1026.94-8.91L1026.94-8.91Q1025.19-5.58 1022.04-3.24L1022.04-3.24L1022.04-3.24Q1015.29 1.80 1004.49 1.80L1004.49 1.80L1004.49 1.80Q998.64 1.80 994.14-1.26L994.14-1.26L994.14-1.26Q989.64-4.23 989.64-7.74L989.64-7.74L989.64-7.74Q989.64-11.25 992.20-13.32L992.20-13.32L992.20-13.32Q994.77-15.39 998.55-15.39L998.55-15.39L998.55-15.39Q1002.33-15.39 1004.67-13.95L1004.67-13.95L1004.67-13.95Q1003.50-10.98 1003.50-9L1003.50-9L1003.50-9Q1003.50-3.06 1008.54-3.06L1008.54-3.06L1008.54-3.06Q1010.70-3.06 1012.14-4.41L1012.14-4.41L1012.14-4.41Q1013.58-5.76 1013.58-8.10L1013.58-8.10L1013.58-8.10Q1013.58-12.69 1005.84-17.55L1005.84-17.55L1005.84-17.55Q999.54-21.69 998.10-23.31L998.10-23.31L998.10-23.31Q995.67-26.19 995.67-29.79L995.67-29.79L995.67-29.79Q995.67-33.39 997.38-36.81L997.38-36.81L997.38-36.81Q999.09-40.23 1002.24-42.66L1002.24-42.66L1002.24-42.66Q1008.81-47.70 1020.24-47.70L1020.24-47.70L1020.24-47.70Q1026.09-47.70 1029.55-45.36L1029.55-45.36L1029.55-45.36Q1033.02-43.02 1033.02-39.06L1033.02-39.06L1033.02-39.06Q1033.02-35.10 1030.63-32.85L1030.63-32.85L1030.63-32.85Q1028.25-30.60 1023.93-30.60L1023.93-30.60L1023.93-30.60Q1020.96-30.60 1019.52-31.59ZM1037.79-9L1037.79-9L1037.79-9Q1037.79-11.43 1039.05-17.55L1039.05-17.55L1043.82-41.85L1038.51-41.85L1038.87-44.55L1038.87-44.55Q1049.67-47.79 1060.11-55.71L1060.11-55.71L1064.43-55.71L1062.27-45.90L1069.29-45.90L1068.48-41.85L1061.55-41.85L1056.96-17.55L1056.96-17.55Q1055.79-11.97 1055.79-10.08L1055.79-10.08L1055.79-10.08Q1055.79-5.76 1059.57-4.86L1059.57-4.86L1059.57-4.86Q1058.67-1.80 1055.43 0L1055.43 0L1055.43 0Q1052.19 1.80 1047.60 1.80L1047.60 1.80L1047.60 1.80Q1043.01 1.80 1040.40-1.08L1040.40-1.08L1040.40-1.08Q1037.79-3.96 1037.79-9ZM1104.93-15.21L1104.93-15.21L1104.93-15.21Q1107.18-13.68 1107.18-10.30L1107.18-10.30L1107.18-10.30Q1107.18-6.93 1105.47-4.77L1105.47-4.77L1105.47-4.77Q1103.76-2.61 1100.97-1.17L1100.97-1.17L1100.97-1.17Q1095.21 1.80 1089.00 1.80L1089.00 1.80L1089.00 1.80Q1082.79 1.80 1079.14 0.45L1079.14 0.45L1079.14 0.45Q1075.50-0.90 1073.07-3.42L1073.07-3.42L1073.07-3.42Q1068.30-8.19 1068.30-16.92L1068.30-16.92L1068.30-16.92Q1068.30-30.51 1075.68-38.79L1075.68-38.79L1075.68-38.79Q1083.60-47.70 1097.37-47.70L1097.37-47.70L1097.37-47.70Q1105.92-47.70 1110.15-44.10L1110.15-44.10L1110.15-44.10Q1113.30-41.40 1113.30-36.99L1113.30-36.99L1113.30-36.99Q1113.30-21.15 1085.94-21.15L1085.94-21.15L1085.94-21.15Q1085.58-18.81 1085.58-16.83L1085.58-16.83L1085.58-16.83Q1085.58-12.69 1087.42-11.12L1087.42-11.12L1087.42-11.12Q1089.27-9.54 1092.69-9.54L1092.69-9.54L1092.69-9.54Q1096.11-9.54 1099.75-11.12L1099.75-11.12L1099.75-11.12Q1103.40-12.69 1104.93-15.21ZM1086.57-25.02L1086.57-25.02L1086.57-25.02Q1092.96-25.02 1096.65-28.98L1096.65-28.98L1096.65-28.98Q1100.34-32.76 1100.34-38.79L1100.34-38.79L1100.34-38.79Q1100.34-40.86 1099.57-41.98L1099.57-41.98L1099.57-41.98Q1098.81-43.11 1097.28-43.11L1097.28-43.11L1097.28-43.11Q1095.75-43.11 1094.44-42.52L1094.44-42.52L1094.44-42.52Q1093.14-41.94 1091.79-39.96L1091.79-39.96L1091.79-39.96Q1088.46-35.46 1086.57-25.02ZM1152.81-15.21L1152.81-15.21L1152.81-15.21Q1155.06-13.68 1155.06-10.30L1155.06-10.30L1155.06-10.30Q1155.06-6.93 1153.35-4.77L1153.35-4.77L1153.35-4.77Q1151.64-2.61 1148.85-1.17L1148.85-1.17L1148.85-1.17Q1143.09 1.80 1136.88 1.80L1136.88 1.80L1136.88 1.80Q1130.67 1.80 1127.02 0.45L1127.02 0.45L1127.02 0.45Q1123.38-0.90 1120.95-3.42L1120.95-3.42L1120.95-3.42Q1116.18-8.19 1116.18-16.92L1116.18-16.92L1116.18-16.92Q1116.18-30.51 1123.56-38.79L1123.56-38.79L1123.56-38.79Q1131.48-47.70 1145.25-47.70L1145.25-47.70L1145.25-47.70Q1153.80-47.70 1158.03-44.10L1158.03-44.10L1158.03-44.10Q1161.18-41.40 1161.18-36.99L1161.18-36.99L1161.18-36.99Q1161.18-21.15 1133.82-21.15L1133.82-21.15L1133.82-21.15Q1133.46-18.81 1133.46-16.83L1133.46-16.83L1133.46-16.83Q1133.46-12.69 1135.30-11.12L1135.30-11.12L1135.30-11.12Q1137.15-9.54 1140.57-9.54L1140.57-9.54L1140.57-9.54Q1143.99-9.54 1147.63-11.12L1147.63-11.12L1147.63-11.12Q1151.28-12.69 1152.81-15.21ZM1134.45-25.02L1134.45-25.02L1134.45-25.02Q1140.84-25.02 1144.53-28.98L1144.53-28.98L1144.53-28.98Q1148.22-32.76 1148.22-38.79L1148.22-38.79L1148.22-38.79Q1148.22-40.86 1147.45-41.98L1147.45-41.98L1147.45-41.98Q1146.69-43.11 1145.16-43.11L1145.16-43.11L1145.16-43.11Q1143.63-43.11 1142.32-42.52L1142.32-42.52L1142.32-42.52Q1141.02-41.94 1139.67-39.96L1139.67-39.96L1139.67-39.96Q1136.34-35.46 1134.45-25.02ZM1229.04 1.80L1229.04 1.80L1229.04 1.80Q1218.15 1.80 1218.15-6.66L1218.15-6.66L1218.15-6.66Q1218.15-10.35 1219.73-17.50L1219.73-17.50L1219.73-17.50Q1221.30-24.66 1221.84-27.54L1221.84-27.54L1221.84-27.54Q1223.10-34.11 1223.10-36.18L1223.10-36.18L1223.10-36.18Q1223.10-40.77 1219.68-40.77L1219.68-40.77L1219.68-40.77Q1217.43-40.77 1215.27-37.66L1215.27-37.66L1215.27-37.66Q1213.11-34.56 1212.12-28.35L1212.12-28.35L1206.54 0L1188.99 1.80L1193.85-22.68L1193.85-22.68Q1194.66-26.73 1195.38-31.32L1195.38-31.32L1195.38-31.32Q1196.10-35.91 1196.10-36.63L1196.10-36.63L1196.10-36.63Q1196.10-40.77 1193.04-40.77L1193.04-40.77L1193.04-40.77Q1190.97-40.77 1188.72-37.71L1188.72-37.71L1188.72-37.71Q1186.47-34.65 1185.21-28.35L1185.21-28.35L1179.72 0L1161.99 1.80L1171.44-45.90L1186.11-47.70L1184.58-38.61L1184.58-38.61Q1186.92-43.47 1191.24-45.59L1191.24-45.59L1191.24-45.59Q1195.56-47.70 1202.31-47.70L1202.31-47.70L1202.31-47.70Q1206.18-47.70 1208.70-45.81L1208.70-45.81L1208.70-45.81Q1211.22-43.92 1212.03-40.86L1212.03-40.86L1212.03-40.86Q1213.56-44.01 1217.48-45.85L1217.48-45.85L1217.48-45.85Q1221.39-47.70 1226.20-47.70L1226.20-47.70L1226.20-47.70Q1231.02-47.70 1233.40-46.66L1233.40-46.66L1233.40-46.66Q1235.79-45.63 1237.23-43.92L1237.23-43.92L1237.23-43.92Q1239.66-40.77 1239.66-35.01L1239.66-35.01L1239.66-35.01Q1239.66-29.34 1237.23-17.55L1237.23-17.55L1237.23-17.55Q1235.97-11.79 1235.97-9.67L1235.97-9.67L1235.97-9.67Q1235.97-7.56 1237.18-6.30L1237.18-6.30L1237.18-6.30Q1238.40-5.04 1240.20-4.86L1240.20-4.86L1240.20-4.86Q1239.30-1.80 1236.19 0L1236.19 0L1236.19 0Q1233.09 1.80 1229.04 1.80ZM1268.73-4.95L1268.73-4.95L1268.73-4.95Q1265.94 1.80 1257.03 1.80L1257.03 1.80L1257.03 1.80Q1252.44 1.80 1249.56-1.35L1249.56-1.35L1249.56-1.35Q1247.13-4.14 1247.13-6.93L1247.13-6.93L1247.13-6.93Q1247.13-14.22 1250.46-28.44L1250.46-28.44L1253.79-45.90L1272.06-47.70L1266.57-19.26L1266.57-19.26Q1265.04-12.60 1265.04-10.26L1265.04-10.26L1265.04-10.26Q1265.04-5.13 1268.73-4.95ZM1255.41-58.41L1255.41-58.41L1255.41-58.41Q1255.41-61.92 1258.34-63.81L1258.34-63.81L1258.34-63.81Q1261.26-65.70 1265.49-65.70L1265.49-65.70L1265.49-65.70Q1269.72-65.70 1272.29-63.81L1272.29-63.81L1272.29-63.81Q1274.85-61.92 1274.85-58.41L1274.85-58.41L1274.85-58.41Q1274.85-54.90 1272.02-53.10L1272.02-53.10L1272.02-53.10Q1269.18-51.30 1264.95-51.30L1264.95-51.30L1264.95-51.30Q1260.72-51.30 1258.07-53.10L1258.07-53.10L1258.07-53.10Q1255.41-54.90 1255.41-58.41ZM1277.82-9L1277.82-9L1277.82-9Q1277.82-11.43 1279.08-17.55L1279.08-17.55L1283.85-41.85L1278.54-41.85L1278.90-44.55L1278.90-44.55Q1289.70-47.79 1300.14-55.71L1300.14-55.71L1304.46-55.71L1302.30-45.90L1309.32-45.90L1308.51-41.85L1301.58-41.85L1296.99-17.55L1296.99-17.55Q1295.82-11.97 1295.82-10.08L1295.82-10.08L1295.82-10.08Q1295.82-5.76 1299.60-4.86L1299.60-4.86L1299.60-4.86Q1298.70-1.80 1295.46 0L1295.46 0L1295.46 0Q1292.22 1.80 1287.63 1.80L1287.63 1.80L1287.63 1.80Q1283.04 1.80 1280.43-1.08L1280.43-1.08L1280.43-1.08Q1277.82-3.96 1277.82-9Z" fill="#ffd8b4"></path></g></g><style>text {
  font-size: 64px;
  font-family: Arial Black;
  dominant-baseline: central;
  text-anchor: middle;
}</style></svg>